# xmcd
#
# Track frame offsets: 
#        150
#        14468
#        28943
#        42323
#        56165
#        69103
#        82773
#        96438
#        111073
#        123060
#        137825
#        149903
#        161675
#        175143
#        189395
#        203250
#        217495
#        230625
#        244268
#        257875
#        268820
#        280238
#        293348
#        307305
#
# Disc length: 4274 seconds
#
# Revision: 2
# Processed by: cddbd v1.5.2PL0 Copyright (c) Steve Scherf et al.
# Submitted via: ExactAudioCopy v0.99pb3
#
DISCID=7010b018
DTITLE=John Lee Hooker - The Legendary Modern recordings
DYEAR=1993
DGENRE=Blues
TTITLE0=Boogie Chillen
TTITLE1=Sally Mae
TTITLE2=Boogie Boogie
TTITLE3=Hobo Blues
TTITLE4=Weeping Willow Boogie
TTITLE5=Drifting from door to door
TTITLE6=Crawling Kingsnake
TTITLE7=Women in my life
TTITLE8=Howlin Wof
TTITLE9=Playing the races
TTITLE10=Let your daddy ride
TTITLE11=Queen Bee
TTITLE12=Wednesday evening
TTITLE13=I'm in the mood
TTITLE14=Tease me, baby
TTITLE15=Turn over a new leaf
TTITLE16=Rock house boogie
TTITLE17=Too much boogie
TTITLE18=Need Somebody
TTITLE19=Gotta boogie
TTITLE20=Hump me one more time
TTITLE21=Down child
TTITLE22=Bad Boy
TTITLE23=Please take me back 
EXTD=
EXTT0=
EXTT1=
EXTT2=
EXTT3=
EXTT4=
EXTT5=
EXTT6=
EXTT7=
EXTT8=
EXTT9=
EXTT10=
EXTT11=
EXTT12=
EXTT13=
EXTT14=
EXTT15=
EXTT16=
EXTT17=
EXTT18=
EXTT19=
EXTT20=
EXTT21=
EXTT22=
EXTT23=
PLAYORDER=
